# Blender v2.69 (sub 0) OBJ File: 'turel.blend'
# www.blender.org
mtllib turel.mtl
o head3_Cube.012
v -4.071434 12.123375 -2.534277
v -9.993467 12.123375 -2.534277
v -10.975525 38.004684 -4.057284
v -3.089376 38.004684 -4.057284
v -4.071434 12.123375 0.736272
v -9.993467 12.123375 0.736272
v -10.975525 38.004684 2.259279
v -3.089376 38.004684 2.259279
v -7.032451 12.123375 2.062014
v -7.032451 12.123375 -3.860019
v -7.032451 38.004684 3.044073
v -7.032451 38.004684 -4.842078
v -4.071434 12.123375 -0.899003
v -9.993467 12.123375 -0.899003
v -10.975526 38.004684 -0.899003
v -3.089375 38.004684 -0.899003
v -7.032451 12.123375 -0.899003
v -7.032451 38.004684 -0.899003
v -9.993467 31.169861 0.736272
v -9.993467 31.169861 -2.534277
v -4.071434 31.169861 0.736272
v -4.071434 31.169861 -2.534277
v -7.032451 31.169861 -3.860019
v -7.032451 31.169861 2.062014
v -9.993467 31.169861 -0.899003
v -4.071434 31.169861 -0.899003
v -10.975525 33.525089 2.259279
v -3.089376 33.525089 -4.057284
v -7.032451 33.525089 -4.842078
v -3.089375 33.525089 -0.899003
v -10.975525 33.525089 -4.057284
v -3.089376 33.525089 2.259279
v -7.032451 33.525089 3.044073
v -10.975526 33.525089 -0.899003
vt 0.377845 0.795710
vt 0.316829 0.795710
vt 0.377845 0.734693
vt 0.225304 0.795710
vt 0.194796 0.795710
vt 0.225304 0.734693
vt 0.133779 0.795710
vt 0.072763 0.795710
vt 0.133779 0.734693
vt 0.255812 0.551644
vt 0.316829 0.551644
vt 0.255812 0.612660
vt 0.225304 0.673677
vt 0.194796 0.673677
vt 0.255812 0.917743
vt 0.255812 0.856726
vt 0.316829 0.917743
vt 0.438862 0.795710
vt 0.225304 0.612660
vt 0.194796 0.612660
vt 0.255812 0.978759
vt 0.316829 0.978759
vt 0.377845 0.856726
vt 0.316829 0.856726
vt 0.225304 0.856726
vt 0.194796 0.856726
vt 0.133779 0.856726
vt 0.072763 0.856726
vt 0.255813 0.490627
vt 0.316829 0.490627
vt 0.438862 0.856726
vt 0.255812 0.795710
vt 0.316829 0.734693
vt 0.225304 0.551644
vt 0.316829 0.673677
vt 0.255812 0.673677
vt 0.225304 0.917743
vt 0.316829 0.612660
vt 0.225304 0.978759
vt 0.225304 0.490627
vt 0.255812 0.734693
vt 0.194796 0.551644
vt 0.194796 0.917743
vt 0.194796 0.978759
vt 0.194796 0.490627
vt 0.194796 0.734693
vt 0.072763 0.734693
vt 0.438862 0.734693
vn 0.000000 -1.000000 0.000000
vn -1.000000 0.000000 -0.000000
vn 0.000000 1.000000 0.000000
vn 1.000000 0.000000 -0.000000
vn -0.195202 0.000000 -0.980763
vn -0.408642 0.000000 0.912695
vn 0.195202 0.000000 -0.980763
vn 0.408643 0.000000 0.912695
vn 0.000000 -1.000000 0.000002
vn 0.000000 1.000000 0.000002
vn 0.922978 -0.384854 0.000000
vn -0.408642 0.000000 -0.912695
vn -0.180678 -0.378520 0.907788
vn 0.408643 0.000000 -0.912695
vn 0.180678 -0.378520 0.907788
vn 0.922978 -0.384853 0.000000
vn -0.922978 -0.384853 -0.000000
vn -0.325254 -0.605379 -0.726447
vn 0.325255 -0.605379 -0.726447
vn -0.195202 0.000000 0.980763
vn 0.195202 0.000000 0.980763
vn -0.408643 0.000000 0.912695
vn 0.000000 -1.000000 -0.000002
vn 0.000000 1.000000 -0.000002
vn -0.325255 -0.605379 0.726447
vn 0.408642 0.000000 -0.912695
vn 0.325255 -0.605379 0.726447
vn -0.180678 -0.378520 -0.907788
vn 0.180678 -0.378520 -0.907788
g head3_Cube.012_Material
usemtl Material
s off
f 17/1/1 14/2/1 10/3/1
f 34/4/2 15/5/2 31/6/2
f 18/7/3 16/8/3 12/9/3
f 26/10/4 13/11/4 22/12/4
f 29/13/5 31/6/5 12/14/5
f 24/15/6 19/16/6 9/17/6
f 13/18/1 17/1/1 10/3/1
f 15/5/3 18/7/3 12/9/3
f 28/19/7 29/13/7 4/20/7
f 21/21/8 24/15/8 5/22/8
f 9/23/1 6/24/1 14/2/1
f 27/25/2 7/26/2 34/4/2
f 11/27/3 8/28/3 16/8/3
f 21/29/4 5/30/4 26/10/4
f 5/31/9 9/23/9 13/18/9
f 7/26/10 11/27/10 15/5/10
f 14/2/2 25/32/2 2/33/2
f 30/34/11 26/10/11 28/19/11
f 10/35/12 2/33/12 23/36/12
f 33/37/13 27/25/13 24/15/13
f 1/38/14 10/35/14 22/12/14
f 32/39/15 33/37/15 24/15/15
f 6/24/2 19/16/2 14/2/2
f 32/40/16 21/29/16 26/10/16
f 25/32/17 34/4/17 31/6/17
f 23/36/18 20/41/18 31/6/18
f 22/12/19 23/36/19 28/19/19
f 19/16/17 27/25/17 25/32/17
f 16/42/4 30/34/4 4/20/4
f 11/43/20 7/26/20 33/37/20
f 8/44/21 11/43/21 32/39/21
f 8/45/4 32/40/4 16/42/4
f 14/2/1 2/33/1 10/3/1
f 15/5/2 3/46/2 31/6/2
f 16/8/3 4/47/3 12/9/3
f 13/11/4 1/38/4 22/12/4
f 31/6/5 3/46/5 12/14/5
f 19/16/22 6/24/22 9/17/22
f 1/48/23 13/18/23 10/3/23
f 3/46/24 15/5/24 12/9/24
f 29/13/7 12/14/7 4/20/7
f 24/15/8 9/17/8 5/22/8
f 17/1/1 9/23/1 14/2/1
f 7/26/2 15/5/2 34/4/2
f 18/7/3 11/27/3 16/8/3
f 5/30/4 13/11/4 26/10/4
f 9/23/1 17/1/1 13/18/1
f 11/27/3 18/7/3 15/5/3
f 25/32/2 20/41/2 2/33/2
f 26/10/11 22/12/11 28/19/11
f 2/33/12 20/41/12 23/36/12
f 27/25/25 19/16/25 24/15/25
f 10/35/26 23/36/26 22/12/26
f 21/21/27 32/39/27 24/15/27
f 19/16/2 25/32/2 14/2/2
f 30/34/11 32/40/11 26/10/11
f 20/41/17 25/32/17 31/6/17
f 29/13/28 23/36/28 31/6/28
f 23/36/29 29/13/29 28/19/29
f 27/25/17 34/4/17 25/32/17
f 30/34/4 28/19/4 4/20/4
f 7/26/20 27/25/20 33/37/20
f 11/43/21 33/37/21 32/39/21
f 32/40/4 30/34/4 16/42/4
o head2_Cube.011
v 8.776670 12.123375 -2.534277
v 2.854639 12.123375 -2.534277
v 1.872580 38.004684 -4.260514
v 9.758730 38.004684 -4.260514
v 8.776670 12.123375 0.736272
v 2.854639 12.123375 0.736272
v 1.872580 38.004684 2.462509
v 9.758730 38.004684 2.462509
v 5.815655 12.123375 2.062014
v 5.815655 12.123375 -3.860019
v 5.815655 38.004684 3.044073
v 5.815655 38.004684 -4.842078
v 8.776671 12.123375 -0.899003
v 2.854638 12.123375 -0.899003
v 1.872580 38.004684 -0.899003
v 9.758730 38.004684 -0.899003
v 5.815655 12.123375 -0.899003
v 5.815655 38.004684 -0.899003
v 2.854639 31.169861 0.736272
v 2.854639 31.169861 -2.534277
v 8.776670 31.169861 0.736272
v 8.776670 31.169861 -2.534277
v 5.815655 31.169861 -3.860019
v 5.815655 31.169861 2.062014
v 2.854638 31.169861 -0.899003
v 8.776671 31.169861 -0.899003
v 1.872580 33.525089 2.462509
v 9.758730 33.525089 -4.260514
v 5.815655 33.525089 -4.842078
v 9.758730 33.525089 -0.899003
v 1.872580 33.525089 -4.260514
v 9.758730 33.525089 2.462509
v 5.815655 33.525089 3.044073
v 1.872580 33.525089 -0.899003
vt 0.377845 0.795710
vt 0.316829 0.795710
vt 0.377845 0.734693
vt 0.225304 0.795710
vt 0.194796 0.795710
vt 0.225304 0.734693
vt 0.133779 0.795710
vt 0.072763 0.795710
vt 0.133779 0.734693
vt 0.255812 0.551644
vt 0.316829 0.551644
vt 0.255812 0.612660
vt 0.225304 0.673677
vt 0.194796 0.673677
vt 0.255812 0.917743
vt 0.255812 0.856726
vt 0.316829 0.917743
vt 0.438862 0.795710
vt 0.225304 0.612660
vt 0.194796 0.612660
vt 0.255812 0.978759
vt 0.316829 0.978759
vt 0.377845 0.856726
vt 0.316829 0.856726
vt 0.225304 0.856726
vt 0.194796 0.856726
vt 0.133779 0.856726
vt 0.072763 0.856726
vt 0.255813 0.490627
vt 0.316829 0.490627
vt 0.438862 0.856726
vt 0.255812 0.795710
vt 0.316829 0.734693
vt 0.225304 0.551644
vt 0.316829 0.673677
vt 0.255812 0.673677
vt 0.225304 0.917743
vt 0.316829 0.612660
vt 0.225304 0.978759
vt 0.225304 0.490627
vt 0.255812 0.734693
vt 0.194796 0.551644
vt 0.194796 0.917743
vt 0.194796 0.978759
vt 0.194796 0.490627
vt 0.194796 0.734693
vt 0.072763 0.734693
vt 0.438862 0.734693
vn 0.000000 -1.000000 0.000000
vn -1.000000 0.000000 -0.000000
vn 0.000000 1.000000 0.000000
vn 1.000000 0.000000 -0.000001
vn -0.145911 0.000000 -0.989298
vn -0.408642 0.000000 0.912695
vn 0.145911 0.000000 -0.989298
vn 0.408643 0.000000 0.912695
vn 0.000000 -1.000000 0.000001
vn 1.000000 0.000000 0.000001
vn 0.922977 -0.384854 0.000000
vn -0.408643 0.000000 -0.912695
vn -0.134886 -0.381336 0.914543
vn 0.408643 0.000000 -0.912695
vn 0.134886 -0.381336 0.914543
vn 0.922978 -0.384854 0.000001
vn -0.922978 -0.384854 0.000000
vn -0.313002 -0.642897 -0.699081
vn 0.313002 -0.642897 -0.699081
vn 1.000000 0.000000 0.000000
vn -0.145911 0.000000 0.989298
vn 0.145911 0.000000 0.989298
vn 0.000000 -1.000000 -0.000002
vn -0.408643 0.000000 0.912695
vn 0.922978 -0.384854 -0.000001
vn -0.408642 0.000000 -0.912695
vn -0.313002 -0.642897 0.699081
vn 0.313002 -0.642897 0.699081
vn -0.134886 -0.381336 -0.914543
vn 0.134886 -0.381336 -0.914543
g head2_Cube.011_Material
usemtl Material
s off
f 51/49/30 48/50/30 44/51/30
f 68/52/31 49/53/31 65/54/31
f 52/55/32 50/56/32 46/57/32
f 60/58/33 47/59/33 56/60/33
f 63/61/34 65/54/34 46/62/34
f 58/63/35 53/64/35 43/65/35
f 47/66/30 51/49/30 44/51/30
f 49/53/32 52/55/32 46/57/32
f 62/67/36 63/61/36 38/68/36
f 55/69/37 58/63/37 39/70/37
f 43/71/38 40/72/38 48/50/38
f 61/73/31 41/74/31 68/52/31
f 45/75/32 42/76/32 50/56/32
f 55/77/39 39/78/39 60/58/39
f 39/79/30 43/71/30 47/66/30
f 41/74/32 45/75/32 49/53/32
f 48/50/31 59/80/31 36/81/31
f 64/82/40 60/58/40 62/67/40
f 44/83/41 36/81/41 57/84/41
f 67/85/42 61/73/42 58/63/42
f 35/86/43 44/83/43 56/60/43
f 66/87/44 67/85/44 58/63/44
f 40/72/31 53/64/31 48/50/31
f 66/88/45 55/77/45 60/58/45
f 59/80/46 68/52/46 65/54/46
f 57/84/47 54/89/47 65/54/47
f 56/60/48 57/84/48 62/67/48
f 53/64/46 61/73/46 59/80/46
f 50/90/49 64/82/49 38/68/49
f 45/91/50 41/74/50 67/85/50
f 42/92/51 45/91/51 66/87/51
f 42/93/49 66/88/49 50/90/49
f 48/50/52 36/81/52 44/51/52
f 49/53/31 37/94/31 65/54/31
f 50/56/32 38/95/32 46/57/32
f 47/59/33 35/86/33 56/60/33
f 65/54/34 37/94/34 46/62/34
f 53/64/53 40/72/53 43/65/53
f 35/96/30 47/66/30 44/51/30
f 37/94/32 49/53/32 46/57/32
f 63/61/36 46/62/36 38/68/36
f 58/63/37 43/65/37 39/70/37
f 51/49/30 43/71/30 48/50/30
f 41/74/31 49/53/31 68/52/31
f 52/55/32 45/75/32 50/56/32
f 39/78/39 47/59/39 60/58/39
f 43/71/30 51/49/30 47/66/30
f 45/75/32 52/55/32 49/53/32
f 59/80/31 54/89/31 36/81/31
f 60/58/54 56/60/54 62/67/54
f 36/81/55 54/89/55 57/84/55
f 61/73/56 53/64/56 58/63/56
f 44/83/43 57/84/43 56/60/43
f 55/69/57 66/87/57 58/63/57
f 53/64/31 59/80/31 48/50/31
f 64/82/40 66/88/40 60/58/40
f 54/89/46 59/80/46 65/54/46
f 63/61/58 57/84/58 65/54/58
f 57/84/59 63/61/59 62/67/59
f 61/73/46 68/52/46 59/80/46
f 64/82/49 62/67/49 38/68/49
f 41/74/50 61/73/50 67/85/50
f 45/91/51 67/85/51 66/87/51
f 66/88/49 64/82/49 50/90/49
o body1_Cube.004
v 17.247486 -29.621552 -29.279350
v -17.581203 -29.621552 -29.279350
v -18.640579 26.984680 -29.740540
v 18.306862 26.984680 -29.740540
v 17.247486 -28.613697 -14.120981
v -17.581203 -28.613697 -14.120981
v -18.640579 26.872702 -17.653494
v 18.306862 26.872702 -17.653494
v -26.365871 -24.164383 -12.637301
v -26.365871 -24.164383 -29.843220
v 26.032154 -24.164383 -12.637301
v 26.032154 -24.164383 -29.843220
v -25.232918 21.664200 -14.684851
v 24.899200 21.552217 -29.843220
v -25.232918 21.552217 -29.843220
v 24.899200 21.664200 -14.684851
v -0.166860 -32.975647 -12.311142
v -0.166860 -33.983498 -29.279350
v -0.166860 30.152441 -15.843655
v -0.166860 30.264421 -29.740540
v -0.166860 -24.164383 -29.843220
v -0.166860 -24.164383 -10.827462
v -0.166860 21.552217 -29.843220
v -0.166860 21.664200 -12.875011
v -33.259155 -1.914733 -13.631381
v 32.925438 -1.969100 -29.843220
v -33.259155 -1.969100 -29.843220
v 32.925438 -1.914733 -13.631381
v -0.166860 -1.914733 -11.821543
v -0.166860 -1.969100 -29.843220
vt 0.007946 0.071403
vt 0.021709 0.005973
vt 0.137019 0.005974
vt 0.034251 0.557179
vt 0.071625 0.545018
vt 0.163552 0.544757
vt 0.387294 0.071404
vt 0.373530 0.134004
vt 0.281602 0.134004
vt 0.204526 0.157020
vt 0.234506 0.147825
vt 0.349793 0.150088
vt 0.262700 0.071404
vt 0.262700 0.008804
vt 0.281602 0.071404
vt 0.046019 0.930141
vt 0.043779 0.988471
vt 0.015034 0.992566
vt 0.048266 0.674606
vt 0.018679 0.664218
vt 0.163552 0.676960
vt 0.210163 0.210809
vt 0.333142 0.215604
vt 0.137018 0.071403
vt 0.155960 0.071404
vt 0.088893 0.929199
vt 0.091748 0.985006
vt 0.026465 0.610698
vt 0.149537 0.557440
vt 0.209330 0.071404
vt 0.209330 0.007389
vt 0.252658 0.278244
vt 0.215801 0.264597
vt 0.344501 0.282185
vt 0.164935 0.927528
vt 0.174142 0.982955
vt 0.139718 0.981542
vt 0.021708 0.136833
vt 0.137018 0.136833
vt 0.373530 0.008805
vt 0.281602 0.008804
vt 0.262700 0.134004
vt 0.041219 0.871966
vt 0.012322 0.869137
vt 0.089294 0.873320
vt 0.209329 0.135418
vt 0.171698 0.871750
vt 0.137369 0.874674
vt 0.331005 0.268950
vt 0.131768 0.928257
vt 0.149537 0.610829
vt 0.155960 0.005974
vt 0.155959 0.136833
vt 0.335279 0.162258
vt 0.018373 0.930749
vt 0.149537 0.664218
vn -0.248751 -0.966434 0.064257
vn -0.617902 0.786222 0.007284
vn 0.175661 0.984408 0.009120
vn 0.443025 -0.894534 0.059476
vn 0.000000 0.011785 -0.999931
vn -0.062401 -0.424424 0.903311
vn -0.443025 -0.894534 0.059476
vn 0.955219 -0.295897 0.000992
vn -0.014359 -0.057325 -0.998252
vn -0.054555 0.044567 0.997516
vn -0.946687 0.322145 -0.002380
vn 0.000000 0.000000 -1.000000
vn 0.617902 0.786222 0.007284
vn -0.187990 0.655049 0.731826
vn 0.248751 -0.966434 0.064257
vn -0.175661 0.984408 0.009120
vn 0.062401 -0.424424 0.903311
vn 0.014359 -0.057325 -0.998252
vn 0.054555 0.044567 0.997516
vn 0.187990 0.655050 0.731826
vn 0.946687 0.322145 -0.002380
vn -0.071844 0.068912 0.995032
vn -0.955219 -0.295897 0.000992
vn 0.071844 0.068912 0.995032
vn -0.242572 -0.968427 0.057521
vn -0.635887 0.771761 -0.005702
vn 0.174797 0.984573 0.007933
vn 0.527685 -0.849440 0.000000
vn -0.004275 0.024084 -0.999701
vn -0.142604 -0.164350 0.976039
vn -0.527685 -0.849440 0.000000
vn 0.955002 -0.296599 0.000000
vn 0.000000 -0.102779 -0.994704
vn -0.068898 0.023215 0.997354
vn -0.946416 0.322948 -0.001083
vn 0.635886 0.771762 -0.005702
vn -0.067997 0.329364 0.941751
vn 0.242572 -0.968427 0.057521
vn -0.174797 0.984573 0.007933
vn 0.004275 0.024084 -0.999701
vn 0.142604 -0.164350 0.976039
vn 0.068898 0.023215 0.997354
vn 0.067997 0.329364 0.941751
vn 0.946416 0.322948 -0.001083
vn -0.955002 -0.296599 0.000000
g body1_Cube.004_Material.001
usemtl Material.001
s off
f 85/97/60 74/98/60 70/99/60
f 81/100/61 75/101/61 71/102/61
f 87/103/62 76/104/62 72/105/62
f 79/106/63 73/107/63 69/108/63
f 91/109/64 83/110/64 88/111/64
f 90/112/65 77/113/65 74/114/65
f 74/115/66 77/116/66 70/117/66
f 96/118/67 79/106/67 94/119/67
f 86/120/68 70/99/68 89/121/68
f 97/122/69 93/123/69 90/112/69
f 93/124/70 81/100/70 83/125/70
f 98/126/71 95/127/71 91/109/71
f 76/128/72 84/129/72 72/130/72
f 87/131/73 75/132/73 81/133/73
f 73/134/74 85/97/74 69/135/74
f 75/136/75 87/103/75 71/137/75
f 82/138/64 91/109/64 88/111/64
f 79/139/76 90/112/76 73/140/76
f 69/135/77 86/120/77 89/121/77
f 96/141/78 97/122/78 90/112/78
f 94/142/71 98/126/71 91/109/71
f 76/143/79 87/131/79 84/144/79
f 84/129/80 96/118/80 82/145/80
f 92/146/81 81/133/81 93/123/81
f 77/116/82 93/124/82 95/147/82
f 89/121/71 78/148/71 95/127/71
f 84/144/83 92/146/83 96/141/83
f 80/149/71 89/121/71 94/142/71
f 86/120/84 85/97/84 70/99/84
f 83/125/85 81/100/85 71/102/85
f 88/111/86 87/103/86 72/105/86
f 80/150/87 79/106/87 69/108/87
f 83/110/88 71/137/88 88/111/88
f 85/151/89 90/112/89 74/114/89
f 77/116/90 78/152/90 70/117/90
f 79/106/91 80/150/91 94/119/91
f 70/99/92 78/148/92 89/121/92
f 93/123/93 77/113/93 90/112/93
f 95/147/94 93/124/94 83/125/94
f 95/127/71 83/110/71 91/109/71
f 84/129/95 82/145/95 72/130/95
f 92/146/96 87/131/96 81/133/96
f 85/97/97 86/120/97 69/135/97
f 87/103/98 88/111/98 71/137/98
f 72/105/99 82/138/99 88/111/99
f 90/112/100 85/151/100 73/140/100
f 80/149/92 69/135/92 89/121/92
f 79/139/101 96/141/101 90/112/101
f 82/138/71 94/142/71 91/109/71
f 87/131/102 92/146/102 84/144/102
f 96/118/103 94/119/103 82/145/103
f 97/122/69 92/146/69 93/123/69
f 78/152/104 77/116/104 95/147/104
f 98/126/71 89/121/71 95/127/71
f 92/146/78 97/122/78 96/141/78
f 89/121/71 98/126/71 94/142/71
o head_1_Cube
v -18.826748 13.014459 -14.259573
v 18.881689 13.014459 -14.259573
v 18.881685 -19.639750 -14.109705
v -18.826757 -19.639740 -14.109705
v -8.876815 5.647807 11.712305
v 8.931767 5.647797 11.712305
v 8.931759 -12.160783 11.712305
v -8.876821 -12.160780 11.712305
v -16.030096 12.801082 -5.024789
v 16.085039 12.801080 -5.024789
v 16.085035 -19.314056 -5.024791
v -16.030104 -19.314051 -5.024789
v -24.786289 -3.324472 -14.024691
v 24.841221 -3.324478 -14.024691
v -11.691329 -3.250569 11.517784
v 11.746277 -3.250577 11.517784
v 21.160595 -3.250571 -4.990218
v -21.105658 -3.250566 -4.990218
v 0.027471 18.163378 -14.098600
v 0.027462 -24.812328 -13.950781
v 0.027479 8.468231 11.517784
v 0.027469 -14.969378 11.517784
v 0.027473 17.882557 -4.990218
v 0.027465 -24.383692 -4.990218
v 0.027467 -3.324476 -14.024691
v 0.027473 -3.250573 11.517784
v 8.931759 -16.260117 14.030384
v -8.876822 -16.260115 14.030384
v 16.085035 -23.413391 -2.706712
v -16.030104 -23.413385 -2.706710
v 0.027468 -19.068714 13.835863
v 0.027465 -28.483027 -2.672139
vt 0.855744 0.384971
vt 0.855744 0.529139
vt 0.711576 0.384971
vt 0.355831 0.384971
vt 0.409314 0.384971
vt 0.355831 0.438454
vt 0.151218 0.384970
vt 0.302348 0.384971
vt 0.151218 0.483796
vt 0.506042 0.566301
vt 0.379872 0.483104
vt 0.560445 0.483797
vt 0.409314 0.438454
vt 0.506042 0.203642
vt 0.632212 0.120445
vt 0.560445 0.286145
vt 0.000088 0.384970
vt 0.000088 0.529137
vt 0.632212 0.649497
vt 0.560445 0.384971
vt 0.711576 0.240803
vt 0.379872 0.286838
vt 0.999912 0.384971
vt 0.999912 0.529139
vt 0.451639 0.648804
vt 0.350430 0.527754
vt 0.451639 0.121138
vt 0.552848 0.000088
vt 0.552848 0.769855
vt 0.350430 0.242188
vt 0.855744 0.240803
vt 0.355831 0.331488
vt 0.409314 0.331488
vt 0.151218 0.286145
vt 0.302348 0.331488
vt 0.000089 0.240802
vt 0.711576 0.529139
vt 0.999912 0.240803
vt 0.302348 0.438454
vn 0.000000 -0.003440 -0.999994
vn 0.000000 0.000000 1.000000
vn 0.266017 0.837370 0.477542
vn 0.837461 -0.265639 0.477594
vn -0.171687 0.484920 0.857541
vn -0.887886 -0.281327 0.364025
vn 0.263564 0.964184 0.029727
vn 0.887886 -0.281328 0.364024
vn -0.264651 -0.963243 0.046078
vn -0.837460 -0.265639 0.477594
vn -0.013839 -0.019419 -0.999716
vn 0.844209 0.256732 0.470532
vn -0.900472 0.332473 0.280380
vn 0.900472 0.332473 0.280380
vn -0.844208 0.256733 0.470532
vn 0.031879 0.031879 0.998983
vn -0.257074 0.844059 0.470614
vn 0.151752 -0.486528 -0.860385
vn -0.300004 0.947253 0.112740
vn 0.298918 -0.945933 0.125929
vn 0.013839 -0.019419 -0.999716
vn 0.031941 -0.031941 0.998979
vn -0.265443 -0.837507 0.477620
vn 0.256093 -0.844488 0.470378
vn -0.151753 -0.486528 -0.860385
vn 0.171687 0.484919 0.857541
vn -0.929937 0.181002 0.320088
vn 0.929937 0.181002 0.320088
vn -0.010955 0.009212 -0.999897
vn -0.031879 0.031879 0.998983
vn 0.257075 0.844059 0.470614
vn 0.844339 -0.256436 0.470460
vn -0.171688 0.484920 0.857541
vn -0.898866 -0.329835 0.288527
vn 0.300004 0.947252 0.112740
vn 0.898867 -0.329835 0.288527
vn -0.298918 -0.945933 0.125928
vn -0.844339 -0.256434 0.470461
vn -0.031940 -0.031941 0.998979
vn 0.837417 0.265821 0.477569
vn -0.889318 0.281980 0.360000
vn 0.889319 0.281979 0.360000
vn -0.837417 0.265821 0.477569
vn 0.010956 0.009212 -0.999897
vn -0.266017 0.837370 0.477543
vn -0.263564 0.964184 0.029727
vn 0.264650 -0.963243 0.046078
vn -0.256094 -0.844488 0.470378
vn 0.265443 -0.837508 0.477620
vn 0.171688 0.484920 0.857541
vn -0.929936 0.181003 0.320088
g head_1_Cube_Material
usemtl Material
s off
f 123/153/105 112/154/105 118/155/105
f 124/156/106 120/157/106 114/158/106
f 121/159/107 119/160/107 108/161/107
f 115/162/108 114/163/108 109/164/108
f 105/165/109 120/157/109 129/157/109
f 116/166/110 111/167/110 110/168/110
f 117/169/111 121/159/111 100/170/111
f 112/171/112 115/162/112 109/164/112
f 118/155/113 122/172/113 102/173/113
f 113/174/114 116/166/114 110/168/114
f 117/175/115 100/176/115 112/154/115
f 119/160/106 124/156/106 114/158/106
f 108/177/116 104/178/116 114/163/116
f 107/179/117 99/180/117 111/167/117
f 100/181/118 108/177/118 112/171/118
f 103/182/119 107/179/119 113/174/119
f 111/183/105 123/153/105 118/155/105
f 113/184/120 106/185/120 120/157/120
f 107/186/121 103/187/121 119/160/121
f 122/172/122 109/164/122 130/172/122
f 99/188/123 107/186/123 121/159/123
f 101/189/124 109/164/124 122/172/124
f 99/190/125 117/175/125 111/183/125
f 103/187/126 113/184/126 119/160/126
f 130/172/127 129/157/127 128/168/127
f 127/164/128 125/165/128 129/157/128
f 110/168/129 122/172/129 130/172/129
f 120/157/130 106/185/130 129/157/130
f 106/185/131 110/168/131 126/185/131
f 109/164/132 105/165/132 125/165/132
f 112/154/133 101/189/133 118/155/133
f 120/157/134 105/165/134 114/158/134
f 119/160/135 104/191/135 108/161/135
f 114/163/136 105/165/136 109/164/136
f 125/165/137 105/165/137 129/157/137
f 111/167/138 102/173/138 110/168/138
f 121/159/139 108/161/139 100/170/139
f 101/189/140 112/171/140 109/164/140
f 122/172/141 110/168/141 102/173/141
f 106/185/142 113/174/142 110/168/142
f 123/153/105 117/175/105 112/154/105
f 104/191/143 119/160/143 114/158/143
f 115/162/144 108/177/144 114/163/144
f 116/166/145 107/179/145 111/167/145
f 108/177/146 115/162/146 112/171/146
f 107/179/147 116/166/147 113/174/147
f 102/173/148 111/183/148 118/155/148
f 124/156/106 113/184/106 120/157/106
f 121/159/149 107/186/149 119/160/149
f 109/164/122 127/164/122 130/172/122
f 117/169/150 99/188/150 121/159/150
f 118/155/151 101/189/151 122/172/151
f 117/175/105 123/153/105 111/183/105
f 113/184/106 124/156/106 119/160/106
f 129/157/152 126/185/152 128/168/152
f 130/172/153 127/164/153 129/157/153
f 128/168/129 110/168/129 130/172/129
f 106/185/154 126/185/154 129/157/154
f 110/168/155 128/168/155 126/185/155
f 127/164/132 109/164/132 125/165/132
